<svg version="1" xmlns="http://www.w3.org/2000/svg" width="170.667" height="170.667" viewBox="0 0 128.000000 128.000000"><path d="M54.7 2.1c-1.5 1.2-3.7 4-4.9 6.2-1.1 2.3-3 4.9-4.2 5.8-3.6 2.8-7 10.8-7 16.4 0 11.4 8.7 20.2 17.3 17.6 4.8-1.4 7-3.8 9.2-10.3 2-6.1 1.9-16.2-.4-20.7-.8-1.7-1.2-4.7-1-7.9.7-8.7-2.9-11.6-9-7.1zm4 6.4c0 .8-.9 1.5-2 1.5-1.6 0-1.7-.3-.7-1.5.7-.8 1.6-1.5 2-1.5.3 0 .7.7.7 1.5zm1 11.4c2.2 5.1 1.4 16.2-1.3 19.8-2.3 3.1-4.3 3.8-8 2.9-3-.8-6.7-7.8-6.6-12.3.3-7.3 7.5-15.8 12.4-14.5 1.1.3 2.7 2.1 3.5 4.1zM76.5 3.3c-1.1.9-1.9 3.1-2.2 6.3-.2 2.7-1.3 6.6-2.4 8.6C67 27.4 68.8 42 75.6 48c6.9 6 17.5 3.2 22.2-6 3.9-7.9 2.4-15.1-5-23.6-2.6-3-4.8-5.9-4.8-6.4 0-1.3-5.9-7.9-8-9-1.1-.6-2.3-.5-3.5.3zm4.9 8.2c.3.8.1 1.5-.3 1.5-.5 0-1.1-.7-1.5-1.5-.3-.8-.1-1.5.3-1.5.5 0 1.1.7 1.5 1.5zm3.3 8c6.5 2.6 11 11.4 9.2 17.9-1.1 3.8-6 8.6-8.9 8.6-3.6 0-6.9-2.3-8.7-5.9-3-6.2-1.8-18.7 2.1-21.3 1.5-1.1 2.1-1 6.3.7zM25.2 38c-1.8 1.8-3.4 4.6-3.8 6.8-.4 2-1.4 4.8-2.4 6.2-4 5.9-4.8 15.1-1.8 22 3.3 7.9 11.5 12.8 17.9 11 5-1.5 13.7-12.3 13.9-17.2 0-2-8.2-14.4-11.7-17.5-1.3-1.2-3-4.3-3.6-6.9-.7-2.7-2.1-5.3-3.3-6.1-2-1.3-2.4-1.1-5.2 1.7zm3.8 7.1c0 .5-.4.9-1 .9-.5 0-1-.7-1-1.6 0-.8.5-1.2 1-.9.6.3 1 1 1 1.6zm3.8 7.5C35.6 54.5 43 65.4 43 67.5 43 70.2 34.8 79 32.2 79c-11.1 0-15.9-22.2-5.8-26.6 3.9-1.7 3.7-1.7 6.4.2zM104.8 45.7c-.9 1-2.3 3.2-3.2 5-1 2-2.6 3.4-4.3 3.8-3.7.8-7.3 4-11.7 10.6-5 7.4-4.8 10 1.3 17.9 5.6 7.2 9.1 9.5 14 9.1 6.5-.4 10-3.6 12.6-11.7 1.8-5.8 2.1-13.6.7-17.4-.6-1.5-.6-3.5-.1-4.8 2.1-5.4-2.3-14.2-7-14.2-.4 0-1.5.8-2.3 1.7zm4 8.7c-.2 1-.8 1.3-1.6.7-.7-.4-1-1.5-.6-2.5.8-2.1 2.8-.6 2.2 1.8zm-3.1 6.1c5.5 3.8 5.2 18.4-.5 24-4.5 4.5-7.4 3.3-15.4-6.6-1.6-1.8-2.8-3.6-2.8-4 0-.4 1.8-3.3 4-6.6 5.3-8 10-10.1 14.7-6.8zM59 72c-4.4.9-6.8 3.4-9.8 10.1-3.1 6.6-5.5 9.3-13.3 14.8-4.9 3.4-7.9 8.4-7.9 12.9.1 7.2 7.9 16.5 15 17.9 1.9.3 6.4.1 10-.6 9.5-1.8 10.9-1.8 16.4-.4 7.1 1.8 11.3 1.6 16.2-.8 5.2-2.5 8.4-7.3 8.9-13.1.4-5.6-.5-7.7-5.5-12.9-8.3-8.7-9.8-10.8-11.5-16.3-1.2-3.8-2.9-6.6-5.2-8.6-1.8-1.7-3.7-3-4.1-3.1-3.5-.4-7.1-.4-9.2.1zm9.8 7c1.1 1.1 2.9 4.6 3.9 7.7 1.4 4.5 3.3 7.4 9.1 13.5 3.9 4.3 7.2 8.3 7.3 9 .5 5.9-1.8 10.3-6.2 12.2-3.5 1.5-6 1.4-14.6-.4-5.1-1.2-7-1.1-12 .1-11 2.6-16.9 1.1-20.7-5.2-3.9-6.5-2.2-11 6.2-16.7 7.2-5 8.4-6.3 11.8-13.7 1.6-3.3 3.5-6.5 4.4-7.2 2.4-1.9 8.3-1.6 10.8.7z"/></svg>